# xmcd CD database file
#
# Track frame offsets:
#	150
#	136367
#	190790
#
# Disc length: 4376 seconds
#
# Revision: 0
# Processed by: cddbd v1.4PL0 Copyright (c) Steve Scherf et al.
# Submitted via: CDex 1.50
#
DISCID=22111603
DTITLE=Richard Brookens - Lake Melva Meditation/Yellow Bell
DYEAR=1999
DGENRE=New Age
TTITLE0=Rainforest Cafe
TTITLE1=Desert Oasis
TTITLE2=Lake Melva
EXTD=YEAR: 1999
EXTT0=
EXTT1=
EXTT2=
PLAYORDER=
